<svg version="1.1" id="Layer_1" xmlns="http://www.w3.org/2000/svg" xmlns:xlink="http://www.w3.org/1999/xlink" x="0px" y="0px"
	 width="100%" viewBox="0 0 500 500" enable-background="new 0 0 500 500" xml:space="preserve">
<path fill="none" opacity="1.000000" stroke="#000000" stroke-linecap="round" stroke-linejoin="round" stroke-width="5.000000"
	d="
M432.000000,204.250000 
	C427.707916,210.653076 420.899933,212.609390 413.988892,213.942474 
	C393.121216,217.967667 372.151031,218.150360 350.979675,216.223190 
	C341.191956,215.332230 331.310852,214.852570 321.508911,213.907440 
	C310.657867,212.861145 300.079895,210.109482 289.495880,207.516846 
	C271.040436,202.996048 252.842377,197.272385 233.986404,194.595749 
	C222.907364,193.023071 211.768753,192.999969 200.482407,193.726990 
	C186.705521,194.614456 173.807205,198.888748 160.549973,201.732925 
	C158.782288,202.112152 156.615265,201.700394 155.000000,203.000000 
"/>
<path fill="none" opacity="1.000000" stroke="#000000" stroke-linecap="round" stroke-linejoin="round" stroke-width="5.000000"
	d="
M392.500000,249.000000 
	C389.928650,248.462067 388.161835,250.299225 386.564331,251.580215 
	C378.023224,258.429047 368.382080,261.061127 357.500610,261.117065 
	C341.928223,261.197113 327.230164,257.559998 312.453094,253.157440 
	C297.898010,248.820984 283.260162,244.813446 268.035767,242.737717 
	C251.719482,240.513123 235.420990,237.878098 219.003540,238.187912 
	C195.662262,238.628357 172.500763,241.375076 150.517441,250.044250 
	C139.962173,254.206741 131.561783,260.897919 127.500000,272.000000 
"/>
</svg>