<svg version="1.1" id="Layer_1" xmlns="http://www.w3.org/2000/svg" xmlns:xlink="http://www.w3.org/1999/xlink" x="0px" y="0px"
	 width="100%" viewBox="0 0 496 496" enable-background="new 0 0 496 496" xml:space="preserve">
<path fill="#000000" opacity="1.000000" stroke="none" 
	d="
M356.000000,333.882080 
	C365.333191,333.882904 374.166412,333.873474 382.999573,333.888184 
	C391.123932,333.901733 392.543579,335.651642 390.840820,343.445770 
	C384.710083,371.508301 370.209473,394.461884 348.328491,412.858124 
	C336.362793,422.918152 323.040985,430.756653 308.357483,436.129578 
	C304.268799,437.625732 301.608459,439.387115 302.528656,444.319672 
	C303.136932,447.580170 301.246368,449.285706 298.083313,449.673859 
	C297.422577,449.754913 296.756470,449.841248 296.092773,449.841553 
	C270.436646,449.852875 244.780350,449.906494 219.124542,449.818176 
	C213.257446,449.798004 211.863083,448.547729 211.936951,442.795288 
	C211.987534,438.855804 209.547058,438.237518 206.855530,437.266663 
	C178.388275,426.998230 155.241272,409.772369 138.523270,384.385986 
	C130.209106,371.760925 124.381706,358.016693 121.497887,343.090912 
	C119.991440,335.294037 121.026306,333.894592 129.004318,333.891388 
	C183.836746,333.869446 238.669189,333.865906 293.501617,333.862335 
	C314.167755,333.860992 334.833862,333.875244 356.000000,333.882080 
z"/>
<path fill="#000000" opacity="1.000000" stroke="none" 
	d="
M72.428467,83.514305 
	C72.192070,90.367638 72.192070,90.367943 65.615898,90.389030 
	C64.783188,90.391701 63.950466,90.389328 63.117748,90.389000 
	C53.046612,90.385071 52.742176,90.045990 53.795029,80.005791 
	C55.975063,59.216522 76.481857,48.681496 94.874794,58.901745 
	C102.782501,63.295753 107.359039,73.953461 105.851357,84.483017 
	C104.842300,91.530190 102.158638,97.919922 98.234192,103.820404 
	C91.872581,113.385201 85.493904,122.938774 79.174469,132.531357 
	C78.296791,133.863632 76.893539,135.013977 77.191223,137.669464 
	C83.696823,137.669464 90.287209,137.932541 96.844917,137.582748 
	C101.720108,137.322678 103.687126,138.680237 103.455765,143.934723 
	C103.002289,154.234116 104.330673,153.184784 93.879021,153.229111 
	C82.221199,153.278549 70.561440,153.137115 58.905888,153.308182 
	C55.030468,153.365051 53.717003,151.991684 53.589237,148.101822 
	C53.402557,142.418457 54.514870,137.551071 57.829220,132.688492 
	C66.264061,120.313438 74.163887,107.572502 82.218971,94.940460 
	C85.036842,90.521461 86.949074,85.756340 86.660049,80.377357 
	C86.452339,76.511826 85.653526,72.857803 80.904930,72.383774 
	C76.088249,71.902946 74.081779,74.967583 73.222565,79.155884 
	C72.955009,80.460075 72.712891,81.769485 72.428467,83.514305 
z"/>
<path fill="#000000" opacity="1.000000" stroke="none" 
	d="
M213.141357,282.893738 
	C222.159866,293.926636 227.109329,305.775757 224.448898,320.039154 
	C223.887222,323.050415 222.879715,324.572510 219.709518,324.352539 
	C215.125565,324.034485 210.472382,324.892700 205.776276,323.779877 
	C205.684906,319.079163 208.017075,314.925995 207.274765,310.346924 
	C206.087082,303.020660 202.903748,296.681488 197.915298,291.380981 
	C178.255005,270.490601 183.088867,242.880417 196.459488,222.398819 
	C199.029175,218.462494 204.888962,217.416245 209.022919,219.600098 
	C213.068024,221.736984 214.198074,225.698624 211.691055,230.174652 
	C208.009537,236.747696 204.760452,243.502548 203.492981,250.961441 
	C201.448517,262.992737 204.018066,273.778534 213.141357,282.893738 
z"/>
<path fill="#000000" opacity="1.000000" stroke="none" 
	d="
M320.696533,286.384949 
	C327.720825,296.596802 331.624939,307.224976 329.389801,319.529022 
	C328.731598,323.152344 327.121307,324.656799 323.372192,324.406860 
	C319.262726,324.132904 315.120880,324.344513 310.778198,324.344513 
	C310.656250,323.205536 310.394379,322.539459 310.555054,321.998993 
	C314.215485,309.685913 310.307312,299.481995 301.947235,290.434418 
	C296.545105,284.588043 292.667419,277.800720 290.930603,270.030945 
	C286.973969,252.330597 291.923737,236.475845 301.744537,221.864136 
	C304.202820,218.206635 310.792877,217.475067 314.410919,219.837830 
	C318.238373,222.337341 318.925903,226.311981 316.012482,231.145233 
	C311.474731,238.673096 308.522064,246.753311 307.601257,255.458572 
	C306.647552,264.475464 309.385010,272.532257 315.028534,279.595062 
	C316.793365,281.803680 318.659760,283.931122 320.696533,286.384949 
z"/>
<path fill="#000000" opacity="1.000000" stroke="none" 
	d="
M256.244537,249.231003 
	C253.591446,261.664734 255.953659,272.378510 264.356384,281.625122 
	C273.345032,291.516479 278.386871,302.880493 277.367889,316.587555 
	C276.838074,323.714752 276.463257,324.403595 269.551697,324.313171 
	C265.924042,324.265717 262.252045,324.797791 258.843628,323.930176 
	C257.788177,322.891693 258.143890,321.887329 258.426941,320.968414 
	C262.027161,309.279968 257.747955,299.696625 250.173965,291.199036 
	C242.966217,283.112305 238.195663,273.909637 237.273804,263.125153 
	C235.971771,247.893250 240.886322,234.244461 249.402374,221.859344 
	C252.073883,217.974106 258.763245,217.479523 262.514282,220.223129 
	C265.912354,222.708588 266.356018,226.521179 263.491638,231.331833 
	C260.224609,236.818771 257.893799,242.652969 256.244537,249.231003 
z"/>
<path fill="#000000" opacity="1.000000" stroke="none" 
	d="
M189.904358,56.670113 
	C194.894012,56.821789 199.793228,56.790318 202.101166,61.499393 
	C204.326370,66.039673 204.241547,70.918556 200.693802,75.031059 
	C199.171112,76.796143 199.944641,78.387985 200.296280,80.141937 
	C201.195541,84.627502 203.470016,88.823204 203.361740,93.669563 
	C198.756943,95.220360 196.064865,94.271896 194.941025,89.220398 
	C194.136292,85.603294 193.820816,81.713768 191.371002,77.910286 
	C189.501770,81.774445 190.501144,85.370140 190.342010,88.804451 
	C190.204483,91.772560 190.431458,94.460365 186.078903,94.376122 
	C181.668808,94.290756 182.020416,91.383217 182.011658,88.546600 
	C181.986526,80.408707 182.003540,72.270683 182.001541,64.132713 
	C181.999756,56.766048 182.036194,56.728073 189.904358,56.670113 
M194.298340,63.528236 
	C191.595367,62.283520 190.019730,63.030331 190.365875,66.118019 
	C190.586090,68.082367 188.843613,71.388641 192.618286,71.489388 
	C195.350510,71.562317 195.827606,69.047615 195.664505,66.749275 
	C195.598022,65.812347 195.129471,64.903946 194.298340,63.528236 
z"/>
<path fill="#000000" opacity="1.000000" stroke="none" 
	d="
M184.053268,124.156219 
	C184.103561,122.182831 184.090836,120.681755 184.220047,119.192986 
	C184.437988,116.682404 186.033798,115.861374 188.356201,115.943062 
	C190.509644,116.018806 191.975433,117.004547 191.968781,119.208893 
	C191.941208,128.338943 193.001266,137.522537 191.233154,146.577789 
	C190.271393,151.503479 186.820831,153.933853 181.471527,154.165283 
	C176.353363,154.386734 172.273682,152.025452 171.188995,147.254471 
	C169.066086,137.916901 170.214920,128.380646 170.297302,118.925369 
	C170.319794,116.345184 172.414413,115.847160 174.629135,115.974052 
	C177.226395,116.122871 177.975632,117.844749 177.994995,120.055740 
	C178.053284,126.710602 177.902435,133.371658 178.151367,140.018372 
	C178.252472,142.718216 176.871506,147.234375 181.080734,147.268967 
	C185.345993,147.304016 183.891296,142.772598 184.024292,140.104034 
	C184.280670,134.959671 184.070679,129.792053 184.053268,124.156219 
z"/>
<path fill="#000000" opacity="1.000000" stroke="none" 
	d="
M208.901230,123.987167 
	C209.611252,120.843704 207.086761,116.233276 212.214432,116.132637 
	C217.600815,116.026932 215.856323,120.747345 215.925003,123.671753 
	C216.120407,131.993256 216.015106,140.324005 215.892517,148.649109 
	C215.865265,150.500702 216.246918,152.888153 213.310272,153.255768 
	C210.814285,153.568207 209.737396,151.997086 208.917221,150.022995 
	C207.073166,145.584457 205.205872,141.155594 202.321411,136.823166 
	C202.321411,141.028656 202.304459,145.234253 202.328201,149.439606 
	C202.341049,151.715302 201.778061,153.305756 199.008514,153.298599 
	C196.225540,153.291397 195.704254,151.642761 195.701706,149.402908 
	C195.690491,139.577194 195.663864,129.751480 195.662964,119.925766 
	C195.662811,118.226997 195.703461,116.483147 197.938156,116.099518 
	C200.051544,115.736725 201.481705,116.647263 202.311157,118.562164 
	C204.227264,122.985802 206.127289,127.416412 208.902924,131.835327 
	C208.902924,129.372437 208.902924,126.909538 208.901230,123.987167 
z"/>
<path fill="#000000" opacity="1.000000" stroke="none" 
	d="
M230.007477,136.825363 
	C231.911957,132.089386 235.673187,133.898697 238.650024,134.182266 
	C241.506989,134.454437 241.125412,137.277222 241.155197,139.391968 
	C241.204346,142.882111 241.175812,146.374451 241.110733,149.864563 
	C241.081940,151.408737 240.732452,153.417007 238.888199,153.110229 
	C235.313934,152.515671 232.076584,154.094009 228.683502,154.083771 
	C223.923477,154.069382 220.762405,151.047134 219.701004,145.627304 
	C218.380936,138.886642 218.429428,132.048706 219.424835,125.287918 
	C220.450424,118.322044 223.901749,115.523392 230.451950,115.688034 
	C237.142487,115.856209 239.846252,118.584900 240.608459,125.982841 
	C240.690781,126.781906 240.619553,127.596794 240.619553,128.596222 
	C236.696579,129.711823 233.183929,130.592651 232.807022,124.762848 
	C232.709869,123.260178 231.860565,122.287613 230.225128,122.317581 
	C228.378799,122.351410 227.418060,123.530785 227.397537,125.172653 
	C227.316574,131.651352 227.325485,138.132751 227.431198,144.611038 
	C227.457108,146.200195 228.307251,147.494751 230.169281,147.590088 
	C231.708405,147.668900 232.784256,146.802322 233.217590,145.471939 
	C233.832748,143.583450 234.375336,141.477005 232.747192,139.853775 
	C231.862671,138.971924 230.259933,138.827576 230.007477,136.825363 
z"/>
<path fill="#000000" opacity="1.000000" stroke="none" 
	d="
M147.126358,153.222748 
	C144.466049,152.531067 144.733200,150.668396 144.724976,149.065613 
	C144.676285,139.573593 144.723328,130.081039 144.663010,120.589149 
	C144.646072,117.924194 145.190460,116.040749 148.410065,115.962219 
	C151.983429,115.875061 152.477097,117.992195 152.355301,120.824028 
	C152.269516,122.818520 152.378952,124.820625 152.341446,126.818199 
	C152.300262,129.011795 152.615189,130.841843 155.418777,130.936447 
	C158.242447,131.031738 158.684357,129.282516 158.657730,127.035645 
	C158.630096,124.704742 158.734329,122.371284 158.669128,120.042076 
	C158.595627,117.415642 159.610931,115.985168 162.408096,115.917862 
	C165.507797,115.843269 166.396515,117.424126 166.372070,120.267662 
	C166.289093,129.925735 166.313568,139.585083 166.357422,149.243668 
	C166.368881,151.767059 165.748337,153.337662 162.756729,153.371277 
	C159.702194,153.405594 158.538208,152.110809 158.673874,149.181412 
	C158.773880,147.021591 158.759125,144.848389 158.646225,142.688950 
	C158.525162,140.373383 159.517700,137.293396 155.380524,137.379837 
	C151.627487,137.458252 152.461029,140.264664 152.363449,142.451035 
	C152.267044,144.611877 152.195633,146.790253 152.357742,148.942520 
	C152.628418,152.536270 150.962540,153.791306 147.126358,153.222748 
z"/>
<path fill="#000000" opacity="1.000000" stroke="none" 
	d="
M263.646606,129.012344 
	C263.649384,127.016228 263.653442,125.517853 263.654266,124.019478 
	C263.658905,115.695305 264.427917,115.022751 272.857086,115.973831 
	C284.119110,117.244537 287.899353,124.883133 281.710541,134.312805 
	C280.203857,136.608444 281.130402,138.497604 281.628326,140.448257 
	C282.647339,144.440247 284.261078,148.287491 284.486450,152.440369 
	C278.378265,154.223679 277.609100,153.714493 275.918762,147.915955 
	C274.932159,144.531479 274.824402,140.813477 272.393616,137.215225 
	C270.498627,141.416183 271.552643,145.239975 271.349518,148.913177 
	C271.202881,151.565323 270.836182,153.372330 267.535461,153.380188 
	C264.298340,153.387909 263.625153,151.711487 263.647980,148.988785 
	C263.702393,142.496353 263.653534,136.003036 263.646606,129.012344 
M271.319641,128.139297 
	C271.398804,129.601257 271.198059,131.359085 273.302643,131.453293 
	C274.952301,131.527100 276.131500,130.450821 276.504059,128.895035 
	C276.960815,126.987663 277.268646,124.970581 275.856598,123.260254 
	C275.038086,122.268837 273.801910,121.996101 272.723999,122.516121 
	C270.590881,123.545227 271.560120,125.660210 271.319641,128.139297 
z"/>
<path fill="#000000" opacity="1.000000" stroke="none" 
	d="
M218.611877,94.615051 
	C209.973389,94.361366 206.779404,91.210617 206.673950,83.123245 
	C206.602554,77.646805 206.571487,72.166840 206.683929,66.691772 
	C206.820816,60.026764 210.837860,56.170361 217.348358,56.236458 
	C224.249268,56.306519 228.109604,59.792065 228.281357,66.431885 
	C228.435837,72.403191 228.424881,78.384003 228.289383,84.356140 
	C228.148544,90.563789 225.405945,93.452164 218.611877,94.615051 
M220.628876,66.363754 
	C220.345306,64.116600 219.375488,62.389565 216.820328,62.935799 
	C214.657303,63.398205 214.328323,65.316597 214.334183,67.265724 
	C214.350601,72.734520 214.344589,78.203400 214.336761,83.672234 
	C214.333450,85.973763 214.672363,88.417625 217.484787,88.373833 
	C220.215149,88.331314 220.652695,85.908775 220.656052,83.605827 
	C220.664032,78.136993 220.661407,72.668144 220.628876,66.363754 
z"/>
<path fill="#000000" opacity="1.000000" stroke="none" 
	d="
M253.724487,147.402924 
	C256.466217,148.438934 260.904022,146.229965 260.837830,150.548157 
	C260.764679,155.321274 256.257538,153.227539 253.756805,153.270615 
	C243.626892,153.445114 244.748657,154.233475 244.677170,144.201431 
	C244.621414,136.376282 244.755249,128.548767 244.614349,120.725723 
	C244.553909,117.369514 245.762924,115.734589 249.220261,115.871536 
	C251.880173,115.976898 254.547638,115.876190 257.210022,115.939537 
	C259.196228,115.986794 260.903076,116.545837 261.007690,118.957924 
	C261.112671,121.378662 259.579803,122.066406 257.491302,122.162888 
	C255.068100,122.274811 252.376587,121.701347 252.257858,125.677101 
	C252.157166,129.049194 252.893784,131.148911 256.698669,131.276855 
	C258.183777,131.326813 259.061798,132.359055 259.100006,133.950745 
	C259.134949,135.407684 258.739960,136.561584 257.194305,137.057205 
	C255.569275,137.578293 252.980148,136.651001 252.601974,139.086578 
	C252.184845,141.773010 251.436005,144.686264 253.724487,147.402924 
z"/>
<path fill="#000000" opacity="1.000000" stroke="none" 
	d="
M171.318481,67.868065 
	C171.207214,70.484161 172.085434,71.752617 174.455521,71.768776 
	C176.534607,71.782944 178.023346,72.550957 178.009094,74.954422 
	C177.995178,77.303207 176.420242,77.449631 174.608795,77.533279 
	C169.457016,77.771187 171.760483,81.790108 171.354187,84.321190 
	C170.921097,87.019165 171.814972,88.791862 175.085068,88.720467 
	C177.041077,88.677765 179.911499,87.936188 179.915405,91.355965 
	C179.919556,94.986855 176.951279,94.260330 174.768738,94.322227 
	C163.652878,94.637474 163.650391,94.610748 163.648788,83.455757 
	C163.647736,76.141937 163.813095,68.823166 163.588135,61.516342 
	C163.472855,57.771835 164.890717,56.374550 168.509750,56.655483 
	C170.657547,56.822212 172.831055,56.624901 174.989487,56.696781 
	C177.062515,56.765816 179.648666,56.183949 179.879333,59.435543 
	C180.098892,62.530712 177.814941,62.932552 175.557190,62.908604 
	C172.352570,62.874619 170.940628,64.270988 171.318481,67.868065 
z"/>
<path fill="#000000" opacity="1.000000" stroke="none" 
	d="
M150.082550,94.351028 
	C143.550293,94.149200 142.461349,92.894173 144.270279,87.156624 
	C146.711670,79.413086 149.497055,71.778000 152.089142,64.229424 
	C150.404251,62.398079 148.436417,62.765720 146.714020,62.471230 
	C144.993683,62.177086 143.952789,61.499249 143.928284,59.630611 
	C143.899399,57.429081 145.213455,56.744843 147.123001,56.726986 
	C150.284958,56.697414 153.452347,56.804173 156.608002,56.654263 
	C160.913040,56.449745 161.940613,58.378246 160.592712,62.191471 
	C158.042969,69.404694 155.533508,76.632187 153.023376,83.859337 
	C152.595367,85.091644 152.247406,86.351753 151.861389,87.602547 
	C153.693863,89.357002 155.794907,88.469856 157.677383,88.670990 
	C159.421631,88.857353 161.099121,88.947609 161.156784,91.278625 
	C161.218430,93.770470 159.606033,94.323723 157.553741,94.333366 
	C155.223709,94.344322 152.893661,94.345985 150.082550,94.351028 
z"/>
</svg>