<svg version="1.1" id="Layer_1" xmlns="http://www.w3.org/2000/svg" xmlns:xlink="http://www.w3.org/1999/xlink" x="0px" y="0px"
	 width="100%" viewBox="0 0 496 496" enable-background="new 0 0 496 496" xml:space="preserve">
<path fill="#000000" opacity="1.000000" stroke="none" 
	d="
M307.603271,294.488800 
	C296.346832,332.011047 285.222778,369.151062 274.094238,406.289764 
	C272.375946,412.024017 270.616150,417.745941 268.914978,423.485260 
	C267.828705,427.150208 265.923798,430.011810 261.657715,429.696899 
	C257.617615,429.398651 256.246704,426.419342 255.642899,422.834564 
	C250.980042,395.150879 246.303574,367.469452 241.572128,339.797455 
	C240.800613,335.285248 239.737473,330.822906 238.495895,324.824219 
	C233.584518,333.818237 229.382935,341.485535 225.207458,349.166992 
	C221.469284,356.043915 217.775650,362.945129 214.030518,369.818268 
	C212.378143,372.850769 210.398956,375.713928 206.367661,374.957062 
	C202.182251,374.171234 201.205383,370.763336 200.689651,367.107727 
	C197.282578,342.957550 193.847610,318.811279 190.308960,293.868866 
	C187.388580,297.985687 186.111191,302.074188 184.381134,305.916168 
	C179.867737,315.939117 175.401749,325.983704 170.968094,336.042206 
	C169.452652,339.480194 166.933548,341.156219 163.169479,341.154663 
	C137.336441,341.144073 111.503311,341.198364 85.670410,341.142334 
	C80.936356,341.132080 77.755898,338.258148 77.818893,334.545776 
	C77.882645,330.788788 80.757820,328.682861 86.046066,328.676941 
	C108.379181,328.652039 130.715134,328.468079 153.043503,328.792328 
	C158.628342,328.873413 161.319946,326.916809 163.443314,321.917603 
	C170.539124,305.211456 178.087570,288.697479 185.475647,272.115662 
	C186.220810,270.443237 186.922592,268.729034 187.877808,267.177917 
	C189.288208,264.887665 191.436401,263.476929 194.166687,264.058533 
	C196.926605,264.646423 198.894775,266.276520 199.348053,269.398010 
	C201.973572,287.479095 204.656708,305.551819 207.333328,323.625458 
	C208.420364,330.965546 209.540161,338.300781 210.650146,345.672211 
	C213.404984,345.437775 213.594177,343.466736 214.315689,342.150177 
	C221.121033,329.732361 227.864395,317.280457 234.590576,304.819458 
	C236.379471,301.505402 238.150940,298.098145 242.738556,298.827179 
	C247.282913,299.549377 247.878174,303.071533 248.529648,306.951324 
	C253.039902,333.812042 257.745911,360.639954 262.422333,387.472565 
	C262.726349,389.217194 263.306152,390.913757 264.006165,393.578888 
	C267.558228,385.459503 269.282532,377.714325 271.563507,370.182434 
	C288.200562,315.246704 304.711761,260.272919 321.262604,205.311127 
	C321.454681,204.673309 321.640259,204.033539 321.836639,203.397079 
	C322.820435,200.208817 324.301270,197.383301 328.102295,197.192032 
	C331.802917,197.005814 333.725616,199.440887 335.192749,202.498215 
	C342.181519,217.062088 349.235260,231.594788 356.247711,246.147339 
	C359.067841,251.999771 361.905762,257.845093 364.615631,263.748718 
	C366.748199,268.394592 365.869904,271.926025 362.383881,273.618469 
	C358.827240,275.345215 355.586914,273.827850 353.316742,269.158081 
	C346.762115,255.675339 340.278229,242.158218 333.751221,228.662003 
	C332.690277,226.468216 331.551422,224.312119 329.840240,220.939651 
	C322.221893,246.154846 314.978058,270.130493 307.603271,294.488800 
z"/>
<path fill="#000000" opacity="1.000000" stroke="none" 
	d="
M410.176697,322.634094 
	C409.084045,330.101410 405.634766,335.752380 400.602814,340.709961 
	C390.768677,350.398773 381.059479,360.217896 371.462006,370.141174 
	C368.982483,372.704926 367.308441,373.169678 364.600098,370.390442 
	C354.267975,359.787750 343.647247,349.466492 333.303925,338.874481 
	C325.037506,330.409241 323.229126,318.751587 328.030792,307.923187 
	C333.443878,295.715942 349.334869,289.234680 361.113464,299.755402 
	C363.200104,301.619171 365.349213,303.413025 367.672424,305.413940 
	C370.575592,303.122681 373.313416,301.000366 376.010040,298.826965 
	C387.464020,289.595428 402.582184,296.305542 407.303314,307.190552 
	C409.382019,311.983215 410.615387,316.929230 410.176697,322.634094 
z"/>
<path fill="#000000" opacity="1.000000" stroke="none" 
	d="
M79.492424,98.945312 
	C78.775604,99.803635 78.954315,100.367188 79.453056,100.913956 
	C89.494476,111.922638 91.062828,128.814789 83.216774,141.423355 
	C78.085304,149.669632 66.207588,153.581268 54.722969,150.807144 
	C43.788391,148.165878 37.361031,140.527725 36.737881,128.649841 
	C36.206131,118.514290 33.636978,118.553368 45.859016,118.655449 
	C46.025486,118.656837 46.191990,118.653587 46.358479,118.652939 
	C54.348019,118.621895 54.336872,118.623695 55.562553,126.279694 
	C55.799057,127.756950 56.026459,129.258621 56.493805,130.671036 
	C57.365303,133.304825 59.234211,134.705597 62.080959,134.828110 
	C64.971230,134.952530 67.009521,133.760178 67.728714,130.974915 
	C69.295799,124.905991 69.433098,118.774178 67.328224,112.813667 
	C66.139252,109.446747 63.291504,108.151901 59.802151,108.144478 
	C56.540936,108.137535 54.768333,106.833855 55.451614,103.226059 
	C55.663174,102.109024 55.562378,100.882225 55.364666,99.747475 
	C54.678730,95.810608 55.410164,93.544769 60.245178,93.396286 
	C64.899513,93.253365 67.911880,90.189888 68.417313,85.440140 
	C68.767418,82.150093 68.840858,78.761169 68.463593,75.482506 
	C68.079063,72.140778 66.384789,69.478325 62.446728,69.320473 
	C58.543659,69.164009 56.693756,71.314751 56.122318,74.932289 
	C55.966728,75.917252 55.648251,76.877411 55.507786,77.863663 
	C54.439259,85.366325 54.446983,85.325607 46.699242,85.373360 
	C33.335331,85.455719 36.133938,85.585571 36.720406,74.732231 
	C37.294075,64.115715 44.446987,56.075039 55.188110,54.122658 
	C60.925320,53.079830 66.795975,53.172863 72.466660,55.054966 
	C89.565811,60.730190 93.744270,85.941795 79.492424,98.945312 
z"/>
<path fill="#000000" opacity="1.000000" stroke="none" 
	d="
M339.574219,54.765476 
	C344.497620,54.002625 346.593964,55.738911 346.111816,60.443565 
	C345.909576,62.417030 346.110718,64.433151 346.148376,66.429504 
	C346.184143,68.326996 346.814362,69.663338 349.050751,69.597481 
	C351.336792,69.530174 351.715729,68.033485 351.732666,66.207146 
	C351.757355,63.544788 351.826141,60.882217 351.806671,58.220249 
	C351.788086,55.683578 353.043701,54.725647 355.508270,54.668812 
	C358.084320,54.609409 359.746979,55.352119 359.761536,58.201092 
	C359.812500,68.177841 359.861969,78.154617 359.884247,88.131447 
	C359.890228,90.820541 358.455719,91.976753 355.792755,91.977661 
	C353.118927,91.978569 351.760376,90.870140 351.798920,88.115845 
	C351.836151,85.454109 351.787720,82.790733 351.747650,80.128510 
	C351.719513,78.259552 351.761261,76.261559 349.121887,76.167862 
	C346.166992,76.062973 346.166138,78.233261 346.117798,80.288559 
	C346.074768,82.118347 346.089050,83.949432 346.067169,85.779808 
	C346.031006,88.803360 346.433319,92.094032 341.790863,92.000427 
	C337.458771,91.913071 337.865906,88.797791 337.859375,85.965775 
	C337.839386,77.327171 337.852112,68.688499 337.852112,60.135807 
	C331.458710,60.304195 330.706177,64.051315 330.991913,69.082420 
	C331.331055,75.053558 331.029755,81.059700 331.058716,87.050415 
	C331.072144,89.827049 330.610199,91.991661 327.076660,92.026909 
	C323.330719,92.064278 322.755127,89.876244 322.789612,86.826210 
	C322.866791,80.004135 322.789276,73.180443 322.805908,66.357483 
	C322.812134,63.793110 322.987457,61.296223 319.386322,60.858624 
	C317.375641,60.614288 316.791199,58.992855 317.023224,57.112503 
	C317.300415,54.866310 319.001984,54.696259 320.728943,54.700409 
	C326.868500,54.715157 333.007965,54.767445 339.574219,54.765476 
z"/>
<path fill="#000000" opacity="1.000000" stroke="none" 
	d="
M272.066040,75.409119 
	C266.350708,76.031631 268.854156,80.160797 268.529968,82.845795 
	C268.189392,85.666298 270.432861,85.982132 272.571075,85.873917 
	C274.434387,85.779610 276.102203,86.293190 278.164429,87.512505 
	C280.072052,78.139336 281.913452,69.057259 283.772034,59.978703 
	C284.395081,56.935452 285.058624,54.089676 289.350677,54.629257 
	C291.625427,54.915230 292.949951,55.457470 293.429871,57.979038 
	C295.293701,67.772507 297.407837,77.518127 299.317841,87.303223 
	C299.666718,89.090576 300.670715,91.503090 297.395447,91.887779 
	C294.780487,92.194916 292.742188,91.598297 292.361694,88.503410 
	C292.260803,87.682861 291.921326,86.894157 291.779297,86.075584 
	C291.523285,84.600052 290.842377,83.607246 289.220795,83.514946 
	C287.393127,83.410934 286.354248,84.342072 286.148285,86.076141 
	C285.505096,91.490845 282.822388,92.385338 277.526184,91.650864 
	C273.640717,91.112038 269.300476,91.950943 265.153259,92.033173 
	C262.068359,92.094330 260.630066,90.836090 260.673035,87.565308 
	C260.797821,78.067596 260.799072,68.566452 260.688904,59.068501 
	C260.651886,55.878746 261.825623,54.477737 265.069214,54.656029 
	C267.893982,54.811302 270.733429,54.697395 273.566406,54.705536 
	C275.390747,54.710777 276.901276,55.132839 277.073395,57.343563 
	C277.233856,59.403656 276.138580,60.250191 274.242310,60.731041 
	C268.043457,62.302906 268.057373,62.357758 269.230591,68.898048 
	C270.806274,70.703598 274.697845,68.274017 275.147461,72.132980 
	C275.383881,74.162170 274.586548,75.342041 272.066040,75.409119 
z"/>
<path fill="#000000" opacity="1.000000" stroke="none" 
	d="
M225.311218,117.021111 
	C226.087540,121.658180 226.822968,125.876045 227.558411,130.093918 
	C227.789291,130.110031 228.020157,130.126144 228.251038,130.142258 
	C228.759201,125.956665 229.277084,121.772224 229.771866,117.585045 
	C230.067490,115.083153 230.701767,112.902840 233.901474,113.129440 
	C237.740540,113.401314 236.663742,116.116928 236.356354,118.310036 
	C235.044388,127.670433 233.633804,137.017044 232.334015,146.379059 
	C232.027771,148.584778 231.424149,150.192810 228.778900,150.260452 
	C225.940659,150.333008 225.096436,148.696991 224.723328,146.271942 
	C224.023956,141.726349 223.181763,137.202744 222.239746,131.747940 
	C220.231003,136.900101 220.341415,141.558136 219.277222,145.956650 
	C218.699692,148.343765 218.108826,150.430359 214.906052,150.287186 
	C211.746384,150.145950 211.819427,147.954651 211.521591,145.780640 
	C210.216019,136.250732 208.894836,126.722557 207.485443,117.207657 
	C207.199814,115.279282 206.662872,113.489929 209.436096,113.133110 
	C212.049591,112.796829 213.661224,113.939369 214.020935,116.513496 
	C214.612305,120.745361 215.052902,124.998291 216.303741,129.293808 
	C217.090210,125.193573 217.938995,121.103851 218.633453,116.988083 
	C218.924515,115.263107 219.125427,113.607445 221.249664,113.312820 
	C223.726166,112.969337 224.987228,114.212784 225.311218,117.021111 
z"/>
<path fill="#000000" opacity="1.000000" stroke="none" 
	d="
M239.912079,54.733368 
	C242.518951,54.953831 243.020218,56.449879 243.074448,58.255955 
	C243.119324,59.750355 242.889038,61.287834 243.165390,62.732647 
	C243.629456,65.158852 241.431549,69.272476 245.861542,69.436935 
	C250.507339,69.609406 248.375046,65.391769 248.822968,62.984352 
	C249.092331,61.536663 248.926758,60.001709 248.901321,58.506905 
	C248.855240,55.798080 250.119446,54.667446 252.858231,54.657455 
	C255.532394,54.647701 256.967712,55.642117 256.968842,58.376564 
	C256.972870,68.346527 256.975311,78.316513 256.950989,88.286430 
	C256.944244,91.049484 255.354874,92.052864 252.753372,91.970482 
	C250.052887,91.884972 248.870575,90.504379 248.889679,87.876022 
	C248.917191,84.087494 248.896713,80.298615 248.896713,76.416893 
	C244.821213,75.239105 243.077194,76.430275 243.118790,80.212723 
	C243.146194,82.704872 243.046844,85.198929 243.099258,87.690140 
	C243.160004,90.577637 241.891754,91.985161 238.932465,91.962715 
	C236.187714,91.941902 235.012817,90.559097 235.013245,87.951454 
	C235.014877,78.147118 235.038681,68.342728 235.014297,58.538460 
	C235.006638,55.461906 236.638382,54.428734 239.912079,54.733368 
z"/>
<path fill="#000000" opacity="1.000000" stroke="none" 
	d="
M327.560211,115.282127 
	C330.008575,117.224762 331.419525,120.108253 330.678864,122.091545 
	C328.184174,128.771622 331.517578,134.985199 331.364807,141.416000 
	C331.252991,146.124146 328.797577,148.737396 324.472809,149.919312 
	C323.837769,150.092865 323.170685,150.233704 322.516724,150.241196 
	C307.802856,150.409958 310.381805,151.506943 310.085297,139.372543 
	C309.911133,132.243866 310.147797,125.106056 310.078827,117.973534 
	C310.044678,114.441612 311.472595,112.819138 315.124878,112.937691 
	C319.282928,113.072662 323.420776,113.067581 327.560211,115.282127 
M319.507629,144.344559 
	C323.990448,143.130646 325.742004,140.008606 323.947052,136.522797 
	C323.183655,135.040390 322.058289,134.189011 320.391174,134.315643 
	C318.317749,134.473129 318.210083,136.098297 318.261963,137.618256 
	C318.334259,139.735687 317.712280,141.937759 319.507629,144.344559 
M321.078064,119.554756 
	C316.170776,120.053696 318.540649,123.686592 318.528778,126.018295 
	C318.520081,127.740494 320.316925,127.903435 321.592285,127.204048 
	C324.131836,125.811386 324.099274,123.519760 323.154114,121.166695 
	C322.932465,120.614876 322.237152,120.253326 321.078064,119.554756 
z"/>
<path fill="#000000" opacity="1.000000" stroke="none" 
	d="
M380.219482,113.487869 
	C383.901154,112.720055 385.232941,114.233093 385.221191,117.407990 
	C385.185577,127.051987 385.218323,136.696243 385.179138,146.340225 
	C385.172424,147.997971 385.171051,149.774246 382.894226,150.154266 
	C380.712433,150.518448 379.418304,149.452240 378.626343,147.570953 
	C376.716095,143.033371 374.822510,138.488785 372.095886,134.086014 
	C372.095886,138.161240 372.106964,142.236526 372.091431,146.311691 
	C372.083008,148.525116 371.531250,150.189453 368.783264,150.277863 
	C365.831451,150.372772 365.013916,148.722473 365.011993,146.234024 
	C365.004547,136.589981 364.999359,126.945869 365.035858,117.301941 
	C365.042999,115.414711 365.293335,113.564087 367.704315,113.171333 
	C369.935364,112.807884 371.073975,114.094971 371.883179,115.910675 
	C373.840088,120.301773 375.807831,124.688042 378.071106,129.746536 
	C379.699554,124.048935 377.147797,118.515244 380.219482,113.487869 
z"/>
<path fill="#000000" opacity="1.000000" stroke="none" 
	d="
M182.668198,91.914619 
	C177.641220,90.383591 175.594437,87.156631 175.611008,82.429764 
	C175.633209,76.099579 175.498978,69.766144 175.661133,63.439980 
	C175.798904,58.064922 178.552948,55.231201 183.859680,54.486519 
	C190.110550,53.609356 194.737946,55.610416 196.013992,60.613235 
	C198.135620,68.931335 198.158752,77.468605 196.080963,85.791611 
	C194.763702,91.068192 190.747849,92.671181 182.668198,91.914619 
M183.337128,82.736664 
	C183.577271,84.661346 184.506836,85.878952 186.602020,85.529495 
	C188.482193,85.215912 188.773529,83.648026 188.788849,82.114677 
	C188.845108,76.484314 188.851089,70.853180 188.832718,65.222481 
	C188.826065,63.183758 188.768936,60.858654 185.939926,60.990608 
	C183.170441,61.119789 183.294128,63.492290 183.284561,65.488228 
	C183.258347,70.953720 183.282242,76.419456 183.337128,82.736664 
z"/>
<path fill="#000000" opacity="1.000000" stroke="none" 
	d="
M139.862518,65.170227 
	C139.658585,62.944340 139.708466,60.787846 137.044647,60.966095 
	C134.700180,61.122974 134.242599,63.013096 134.236572,64.975700 
	C134.219208,70.634041 134.219391,76.292656 134.260406,81.950813 
	C134.271591,83.492683 134.540222,85.018028 136.344238,85.515259 
	C137.822525,85.922714 139.062164,85.413040 139.608978,83.980820 
	C140.241425,82.324371 141.521866,80.319176 139.873978,78.882111 
	C138.262482,77.476761 135.621979,76.659775 137.128815,74.021019 
	C138.522217,71.580925 141.344894,72.877907 143.549393,72.689095 
	C144.657623,72.594162 145.800278,72.901024 147.062439,73.041191 
	C147.845322,78.190567 148.071075,83.138687 147.966034,88.103630 
	C147.929306,89.840019 147.352325,92.158630 145.441544,91.667633 
	C141.694550,90.704781 138.311127,92.635345 134.762787,92.241814 
	C130.263153,91.742783 127.499672,89.167900 126.725067,84.670189 
	C125.414909,77.062729 125.479065,69.431381 126.762924,61.836796 
	C127.622208,56.753742 131.611221,54.036961 137.452057,54.263351 
	C143.271790,54.488918 146.851501,57.553364 147.229538,62.853462 
	C147.351196,64.559044 148.021698,66.821449 145.631271,67.554321 
	C143.404251,68.237106 140.926544,68.744873 139.862518,65.170227 
z"/>
<path fill="#000000" opacity="1.000000" stroke="none" 
	d="
M221.178772,82.439835 
	C218.939560,90.158638 209.828369,94.464165 202.424362,91.795837 
	C200.897522,91.245583 200.340057,90.247734 200.338425,88.797859 
	C200.325989,77.670883 200.331589,66.543892 200.331589,55.355469 
	C204.919403,54.259220 208.915421,54.366077 212.805588,55.012100 
	C218.700455,55.991035 221.072037,59.000080 221.269165,65.513145 
	C221.435318,71.003502 221.261246,76.504150 221.178772,82.439835 
M208.326843,64.142944 
	C208.309906,69.939423 208.246521,75.736397 208.307495,81.532059 
	C208.323456,83.050163 207.705978,85.209785 210.148499,85.468628 
	C212.283066,85.694839 213.014404,83.856888 213.226425,82.229599 
	C214.019928,76.139183 214.112946,69.963470 213.231857,63.929115 
	C212.818741,61.099823 210.557693,59.312622 208.326843,64.142944 
z"/>
<path fill="#000000" opacity="1.000000" stroke="none" 
	d="
M164.258209,54.541512 
	C169.961273,55.667927 172.029892,59.454746 172.236588,64.317894 
	C172.490250,70.285179 172.473312,76.276939 172.265198,82.247375 
	C172.039459,88.723518 167.791534,92.397743 161.117233,92.310852 
	C154.770020,92.228226 150.930740,88.575661 150.714401,82.072281 
	C150.537842,76.764175 150.629379,71.445511 150.673019,66.132111 
	C150.747040,57.117783 154.562500,53.769459 164.258209,54.541512 
M162.879807,85.141800 
	C166.290421,77.873100 164.427780,70.306534 164.024963,62.846325 
	C163.951706,61.489620 162.550201,60.660419 161.003540,60.938229 
	C159.537613,61.201546 158.507721,62.204090 158.484650,63.630562 
	C158.382919,69.920273 158.323425,76.215141 158.484970,82.502075 
	C158.537521,84.547440 159.911621,85.804916 162.879807,85.141800 
z"/>
<path fill="#000000" opacity="1.000000" stroke="none" 
	d="
M194.270630,136.839188 
	C193.920364,148.142792 186.487518,153.313690 175.903305,150.198730 
	C174.026703,149.646454 173.667694,148.418655 173.665970,146.839172 
	C173.654861,136.675797 173.668640,126.512390 173.667908,116.348991 
	C173.667786,114.660751 174.230209,113.262810 176.086884,113.167061 
	C187.368820,112.585266 194.730911,113.661049 194.293198,126.367889 
	C194.178543,129.696411 194.272552,133.032120 194.270630,136.839188 
M186.628540,125.124390 
	C186.509033,124.306213 186.509338,123.446808 186.244980,122.678482 
	C185.704666,121.108185 185.150375,119.273117 182.968109,119.632187 
	C180.919144,119.969337 181.287155,121.845955 181.239227,123.257469 
	C181.143402,126.079605 181.074280,128.912949 181.216675,131.730438 
	C181.428101,135.913651 180.478943,140.222458 181.959259,144.469833 
	C186.198257,143.725937 186.415970,140.706955 186.569366,137.964172 
	C186.791779,133.987717 186.637253,129.990204 186.628540,125.124390 
z"/>
<path fill="#000000" opacity="1.000000" stroke="none" 
	d="
M409.789307,124.070068 
	C405.784821,127.630165 403.206696,127.026367 402.044464,122.563423 
	C401.599030,120.852951 401.316742,119.136597 399.018890,119.458099 
	C396.961548,119.745949 396.407928,121.377823 396.387268,123.143173 
	C396.323029,128.639267 396.326111,134.136429 396.342865,139.633057 
	C396.349152,141.698944 396.592102,143.779083 399.031952,144.397614 
	C400.589905,144.792557 401.616608,143.708633 402.068024,142.389175 
	C402.756226,140.377625 403.739746,138.014679 401.327423,136.591263 
	C399.659546,135.607086 398.574341,134.638351 399.186005,132.713425 
	C399.928650,130.376312 402.057281,130.967194 403.815094,130.754822 
	C408.380066,130.203323 410.911896,131.738464 410.242126,136.766281 
	C410.154938,137.420959 410.230133,138.097290 410.230438,138.763596 
	C410.235687,151.041168 410.235718,151.041168 398.338898,150.987503 
	C392.778168,150.962433 388.920746,147.112045 388.730377,140.974960 
	C388.544525,134.984131 388.565857,128.979691 388.724945,122.987312 
	C388.890625,116.747025 392.240662,113.237556 398.096710,112.758774 
	C404.718140,112.217422 408.314911,115.026047 409.530884,121.693962 
	C409.650116,122.347778 409.738007,123.007332 409.789307,124.070068 
z"/>
<path fill="#000000" opacity="1.000000" stroke="none" 
	d="
M152.951752,113.084381 
	C156.542358,113.957169 156.541107,117.112862 157.681564,119.367004 
	C159.249130,122.465378 160.468994,125.739670 162.679916,128.930939 
	C162.679916,124.989708 162.725311,121.047752 162.662582,117.107529 
	C162.626007,114.809731 163.202057,113.189072 165.891129,113.121162 
	C168.542099,113.054214 169.328995,114.522621 169.321945,116.892960 
	C169.292740,126.706657 169.325424,136.520554 169.293259,146.334244 
	C169.287903,147.962540 169.462341,149.784210 167.096771,150.144913 
	C164.905167,150.479095 163.624374,149.403885 162.833923,147.532013 
	C160.910355,142.976669 159.008102,138.412338 156.262466,133.940994 
	C156.262466,138.161316 156.224564,142.382126 156.276993,146.601791 
	C156.307327,149.042236 155.352585,150.262405 152.765732,150.304108 
	C149.981277,150.348984 149.481277,148.848328 149.499786,146.507355 
	C149.578644,136.527908 149.598892,126.547676 149.568527,116.567947 
	C149.561951,114.408134 150.090637,112.955635 152.951752,113.084381 
z"/>
<path fill="#000000" opacity="1.000000" stroke="none" 
	d="
M139.232712,144.907928 
	C138.460175,142.607880 137.060989,142.033401 135.182861,142.363373 
	C133.459625,142.666138 133.355011,144.093567 133.176651,145.407852 
	C132.506958,150.342621 129.759125,151.317139 124.970764,149.416901 
	C126.383125,142.117950 127.762573,134.837646 129.209793,127.570839 
	C129.987473,123.666000 130.919403,119.792000 131.709732,115.889503 
	C132.241501,113.263657 134.220627,113.075615 136.279663,113.060051 
	C138.170639,113.045746 139.997650,113.228951 140.482010,115.626312 
	C142.741913,126.811562 145.019775,137.993179 147.273666,149.089600 
	C141.165039,151.162430 140.488342,150.790344 139.232712,144.907928 
M135.785370,129.521790 
	C135.338181,131.792236 134.570297,134.058289 135.705154,137.459320 
	C138.743149,134.327118 136.372543,131.819275 135.785370,129.521790 
z"/>
<path fill="#000000" opacity="1.000000" stroke="none" 
	d="
M334.657501,132.998688 
	C334.665985,127.336052 334.745758,122.171852 334.655609,117.010620 
	C334.608032,114.287483 335.752930,112.964882 338.461426,112.982719 
	C341.457947,113.002449 344.455994,112.973679 347.450500,113.061859 
	C349.552246,113.123764 350.972443,114.063690 350.890594,116.413223 
	C350.817200,118.521248 349.525848,119.253410 347.587097,119.286057 
	C345.078613,119.328300 342.451599,119.031975 342.344513,122.875549 
	C342.258850,125.949417 342.714294,128.115921 346.469299,128.163040 
	C348.169861,128.184357 349.080139,129.430176 349.122833,131.202316 
	C349.174469,133.344330 347.946075,134.152695 346.018860,134.266708 
	C340.731110,134.579483 342.687317,138.633118 342.421265,141.421600 
	C342.114960,144.632095 344.445312,144.682053 346.747375,144.681824 
	C348.781006,144.681610 351.058502,144.614014 350.958649,147.563400 
	C350.860626,150.458771 348.558441,150.317963 346.552856,150.300186 
	C332.275116,150.173569 334.956055,151.907516 334.659515,138.994308 
	C334.617462,137.163284 334.656647,135.330383 334.657501,132.998688 
z"/>
<path fill="#000000" opacity="1.000000" stroke="none" 
	d="
M239.663239,127.008232 
	C239.663879,123.847504 239.900848,121.159409 239.616989,118.527496 
	C239.126251,113.977806 241.215775,112.553986 245.412003,112.932343 
	C247.724762,113.140862 250.068817,112.980087 252.397125,113.044853 
	C254.534531,113.104309 255.924728,114.066925 255.816513,116.389946 
	C255.720001,118.462128 254.385544,119.218155 252.463196,119.253204 
	C249.928085,119.299408 247.382248,119.094414 247.298523,122.921074 
	C247.230270,126.039795 247.796265,128.098053 251.469147,128.181564 
	C253.166718,128.220139 254.083969,129.425797 254.067947,131.230377 
	C254.049072,133.356384 252.838638,134.193436 250.904083,134.236053 
	C245.806747,134.348389 247.691010,138.223495 247.366257,140.848984 
	C246.962433,144.113556 248.947113,144.751526 251.675308,144.692657 
	C253.642334,144.650208 255.998642,144.467972 255.936081,147.482651 
	C255.875992,150.379776 253.623657,150.304245 251.601761,150.295303 
	C237.290741,150.232010 239.946533,151.727478 239.678879,138.989258 
	C239.598480,135.163147 239.665604,131.333939 239.663239,127.008232 
z"/>
<path fill="#000000" opacity="1.000000" stroke="none" 
	d="
M311.887390,92.054932 
	C301.774597,92.077927 301.808563,92.078209 301.890869,82.233269 
	C301.954681,74.596016 301.954285,66.957748 301.911469,59.320324 
	C301.895203,56.417114 302.628143,54.620762 306.092590,54.628151 
	C309.655945,54.635757 310.155457,56.638050 310.143982,59.441536 
	C310.114075,66.747070 310.133179,74.052910 310.162781,81.358505 
	C310.170929,83.368149 310.062714,85.444336 312.924072,85.790291 
	C315.203857,86.065941 318.511200,85.228951 318.176941,89.239456 
	C317.851593,93.142761 314.568237,91.651657 311.887390,92.054932 
z"/>
<path fill="#000000" opacity="1.000000" stroke="none" 
	d="
M259.006958,114.052307 
	C265.206818,112.411514 266.173187,113.099457 266.213287,118.894890 
	C266.261566,125.873749 266.327759,132.854919 266.196106,139.831497 
	C266.135834,143.024460 266.857819,144.979538 270.583221,144.698975 
	C272.568542,144.549454 274.882965,144.556992 274.629456,147.614502 
	C274.394501,150.448257 272.174225,150.338882 270.159485,150.308395 
	C257.598297,150.118378 257.386047,152.271011 258.466949,139.143753 
	C259.142914,130.934128 257.839752,122.625214 259.006958,114.052307 
z"/>
<path fill="#000000" opacity="1.000000" stroke="none" 
	d="
M288.732269,150.307770 
	C276.667877,150.342194 276.664246,150.342194 276.663513,138.739182 
	C276.663025,131.587021 276.751984,124.433731 276.645782,117.283249 
	C276.601898,114.329887 277.733215,112.992569 280.722229,113.061646 
	C283.561523,113.127258 284.377747,114.618225 284.350311,117.223892 
	C284.271423,124.707855 284.455353,132.196381 284.272491,139.676666 
	C284.186523,143.193344 285.122437,145.089920 289.001068,144.712585 
	C290.884827,144.529358 292.845917,144.727951 292.896820,147.351578 
	C292.945496,149.861832 291.201294,150.282745 288.732269,150.307770 
z"/>
<path fill="#000000" opacity="1.000000" stroke="none" 
	d="
M361.282776,144.840775 
	C361.649811,148.810623 360.447357,150.628372 356.574615,150.317062 
	C352.732422,150.008224 353.182861,147.393143 353.319672,144.914581 
	C353.813690,135.967972 353.799896,127.019073 353.357574,118.076439 
	C353.219147,115.278030 353.327393,113.115318 356.952698,112.992332 
	C360.627808,112.867653 361.370850,114.848877 361.333496,117.995186 
	C361.229095,126.782516 361.288757,135.571808 361.282776,144.840775 
z"/>
<path fill="#000000" opacity="1.000000" stroke="none" 
	d="
M297.274536,138.220718 
	C294.873047,137.768692 294.655609,136.345963 294.921844,134.768936 
	C295.199982,133.121689 296.542999,132.825882 297.915558,132.799194 
	C299.890381,132.760803 301.868622,132.782028 303.842621,132.853592 
	C305.408875,132.910416 306.207062,133.793823 306.258209,135.372818 
	C306.316620,137.177567 305.502533,138.185379 303.664215,138.224136 
	C301.688416,138.265793 299.711517,138.255814 297.274536,138.220718 
z"/>
</svg>